# xmcd
#
# Track frame offsets:
# 150
# 15653
# 36522
# 52186
# 68093
# 90154
# 107529
# 127059
# 143004
# 164372
# 197673
# 212894
# 231874
# 250874
# 267492
# 284701
#
# Disc length: 4186 seconds
#
#
# Revision: 0
# Processed by: cddbd v1.5.1PL2 Copyright (c) Steve Scherf et al.
# Submitted via: FreeRIP 2.945 
#
DISCID=f0105810
DTITLE=Sergio e Rodrigo - Acustico ao Vivo
DYEAR=1900
DGENRE=sertanejo
TTITLE0=Vida Cigana
TTITLE1=Cuitelinho
TTITLE2=Tocando em Frente
TTITLE3=Ainda ontem chorei de saudade
TTITLE4=Como vai voce
TTITLE5=Esperando na Janela
TTITLE6=Lenha
TTITLE7=Boite Azul
TTITLE8=Estou apaixonado
TTITLE9=Pout Pourri modas
TTITLE10=Reino encantado
TTITLE11=Alguem
TTITLE12=E ao Dormir
TTITLE13=Menino da Porteira
TTITLE14=Quando cai a chuva
TTITLE15=Amor perfeito
EXTD=
EXTT0=
EXTT1=
EXTT2=
EXTT3=
EXTT4=
EXTT5=
EXTT6=
EXTT7=
EXTT8=
EXTT9=
EXTT10=
EXTT11=
EXTT12=
EXTT13=
EXTT14=
EXTT15=
PLAYORDER=
